<?xml version="1.0" encoding="utf-8"?>
<!-- Generator: Adobe Illustrator 22.0.1, SVG Export Plug-In . SVG Version: 6.00 Build 0)  -->
<svg version="1.1" id="Capa_1" xmlns="http://www.w3.org/2000/svg" xmlns:xlink="http://www.w3.org/1999/xlink" x="0px" y="0px"
	 viewBox="0 0 120 28" style="enable-background:new 0 0 120 28;" xml:space="preserve">
<style type="text/css">
	.st0{fill:#E50914;}
</style>
<g>
	<g>
		<path class="st0" d="M4,26.5c-1.1-1-1.7-2.5-1.9-4.6C1.7,16.6,1.4,14,1,8.7c-0.2-2,0.2-3.6,1.2-4.8c1-1.2,2.4-1.8,4.4-2
			s3.5,0.3,4.6,1.3c1.1,1,1.7,2.5,1.9,4.6c0.1,0.9,0.1,1.3,0.1,2.2c-1.5,0.1-2.3,0.1-3.8,0.2c-0.1-1-0.1-1.4-0.2-2.4
			C9.2,6.2,8.4,5.4,7,5.5c-1.4,0.1-2,1-1.9,2.6c0.4,5.5,0.6,8.2,1,13.7c0.1,1.6,0.9,2.4,2.2,2.3c1.4-0.1,2-1,1.9-2.6
			c-0.1-2-0.2-2.9-0.3-4.9c-0.8,0.1-1.2,0.1-2,0.1c-0.1-1.4-0.2-2.2-0.3-3.6c2.3-0.2,3.5-0.2,5.8-0.4c0.2,3.3,0.3,4.9,0.5,8.2
			c0.1,2-0.3,3.6-1.2,4.8c-0.9,1.2-2.4,1.8-4.3,1.9C6.5,27.9,5,27.5,4,26.5z"/>
		<path class="st0" d="M15.4,1.8c1.6-0.1,2.5-0.1,4.1-0.2c0.2,4.1,0.3,6.1,0.5,10.2c1.7-0.1,2.6-0.1,4.3-0.2
			c-0.2-4.1-0.3-6.1-0.5-10.2c1.6-0.1,2.5-0.1,4.1-0.2c0.4,10.1,0.6,15.1,1.1,25.1c-1.6,0.1-2.4,0.1-4,0.2
			c-0.2-4.5-0.3-6.8-0.5-11.3c-1.7,0.1-2.6,0.1-4.3,0.2c0.2,4.5,0.4,6.8,0.6,11.3c-1.6,0.1-2.4,0.1-4,0.2
			C16.3,16.8,16,11.8,15.4,1.8z"/>
		<path class="st0" d="M33.2,24.8c-1.1-1.1-1.7-2.6-1.7-4.6C31.3,14.9,31.2,12.3,31,7c-0.1-2,0.4-3.6,1.4-4.7c1-1.1,2.5-1.7,4.6-1.8
			c2-0.1,3.6,0.5,4.7,1.5c1.1,1.1,1.7,2.6,1.7,4.6c0.1,5.3,0.2,7.9,0.3,13.2c0,2-0.4,3.6-1.4,4.7c-1,1.1-2.5,1.7-4.4,1.8
			C35.8,26.4,34.3,25.9,33.2,24.8z M39.6,20.2c-0.2-5.5-0.2-8.2-0.4-13.7C39.2,4.8,38.4,4,37,4c-1.4,0-2.1,0.9-2,2.5
			c0.2,5.5,0.3,8.2,0.5,13.7c0.1,1.7,0.8,2.5,2.1,2.4C39,22.7,39.6,21.8,39.6,20.2z"/>
		<path class="st0" d="M47.1,24.4c-1-1.1-1.5-2.6-1.6-4.7c0-0.6,0-0.9,0-1.4c1.5,0,2.3,0,3.8-0.1c0,0.7,0,1,0,1.7
			c0,1.6,0.7,2.4,2.1,2.4c0.7,0,1.2-0.2,1.5-0.6c0.3-0.4,0.5-1,0.5-1.9c0-1.1-0.3-2-0.8-2.8c-0.5-0.8-1.4-1.8-2.7-2.9
			c-1.7-1.4-2.9-2.7-3.5-3.8c-0.7-1.1-1-2.5-1.1-3.9c0-2,0.4-3.5,1.5-4.6c1-1.1,2.5-1.7,4.5-1.7c2,0,3.5,0.5,4.5,1.6
			c1,1.1,1.5,2.6,1.5,4.7c0,0.4,0,0.6,0,1c-1.5,0-2.3,0-3.8,0c0-0.5,0-0.8,0-1.3c0-0.9-0.2-1.5-0.5-1.9c-0.3-0.4-0.9-0.6-1.5-0.6
			c-1.4,0-2,0.8-2,2.4c0,0.9,0.3,1.8,0.8,2.5c0.5,0.8,1.4,1.7,2.8,2.8c1.7,1.4,2.9,2.7,3.5,3.9c0.6,1.2,1,2.5,1,4.1
			c0,2.1-0.5,3.6-1.5,4.8c-1,1.1-2.5,1.7-4.4,1.7C49.6,26,48.2,25.5,47.1,24.4z"/>
		<path class="st0" d="M63,4c-1.7,0-2.6,0-4.3,0c0-1.4,0-2.2,0-3.6c5.1,0,7.6,0,12.7,0.1c0,1.4,0,2.2-0.1,3.6c-1.7,0-2.6,0-4.3-0.1
			c-0.1,8.6-0.1,12.9-0.2,21.6c-1.6,0-2.4,0-4,0C62.9,17,62.9,12.7,63,4z"/>
		<path class="st0" d="M73.3,0.6c4.3,0.1,6.5,0.1,10.8,0.3c0,1.4-0.1,2.2-0.1,3.6c-2.7-0.1-4-0.1-6.7-0.2c-0.1,2.8-0.1,4.2-0.2,7
			c2.1,0,3.1,0.1,5.2,0.1c0,1.4-0.1,2.2-0.1,3.6c-2.1-0.1-3.1-0.1-5.2-0.1c-0.1,4.4-0.2,6.6-0.3,11c-1.6,0-2.4-0.1-4-0.1
			C73.1,15.7,73.1,10.6,73.3,0.6z"/>
		<path class="st0" d="M86.1,0.9C87.8,1,88.6,1,90.2,1.1c-0.3,8.6-0.5,12.9-0.9,21.6c2.6,0.1,3.9,0.2,6.5,0.3
			c-0.1,1.4-0.1,2.2-0.2,3.6c-4.2-0.2-6.3-0.3-10.5-0.4C85.6,16,85.8,11,86.1,0.9z"/>
		<path class="st0" d="M98.9,1.5c1.6,0.1,2.5,0.1,4.1,0.2c-0.6,10-0.9,15.1-1.4,25.1c-1.6-0.1-2.4-0.1-4-0.2
			C98.1,16.5,98.4,11.5,98.9,1.5z"/>
		<path class="st0" d="M108.9,14.4c-1.4-5-2.2-7.5-3.7-12.6c1.7,0.1,2.6,0.2,4.3,0.3c0.9,3.3,1.3,5,2.2,8.3c0,0,0,0,0.1,0
			c1.3-3.2,2-4.7,3.4-7.9c1.5,0.1,2.3,0.2,3.9,0.3c-2.2,4.8-3.3,7.1-5.4,11.9c1.5,5.3,2.2,7.9,3.6,13.2c-1.7-0.1-2.5-0.2-4.2-0.3
			c-0.9-3.6-1.3-5.4-2.3-9c0,0,0,0-0.1,0c-1.4,3.4-2.1,5.1-3.5,8.6c-1.5-0.1-2.2-0.1-3.7-0.2C105.6,21.9,106.7,19.4,108.9,14.4z"/>
	</g>
</g>
</svg>
